<?xml version="1.0" encoding="utf-8"?>
<!-- Generator: Adobe Illustrator 19.0.0, SVG Export Plug-In . SVG Version: 6.00 Build 0)  -->
<svg version="1.1" id="Layer_1" xmlns="http://www.w3.org/2000/svg" xmlns:xlink="http://www.w3.org/1999/xlink" x="0px" y="0px"
	 viewBox="-330 570.5 180 50" style="enable-background:new -330 570.5 180 50;" xml:space="preserve">
<style type="text/css">
	.st0{fill:url(#XMLID_2_);}
	.st1{fill:url(#XMLID_10_);}
	.st2{fill:url(#XMLID_109_);}
	.st3{fill:url(#XMLID_110_);}
	.st4{fill:url(#XMLID_111_);}
	.st5{fill:url(#XMLID_112_);}
	.st6{fill:url(#XMLID_113_);}
	.st7{fill:url(#XMLID_114_);}
	.st8{fill:url(#XMLID_115_);}
	.st9{fill:url(#XMLID_116_);}
	.st10{fill:url(#XMLID_117_);}
	.st11{fill:url(#XMLID_118_);}
	.st12{fill:url(#XMLID_119_);}
	.st13{fill:url(#XMLID_120_);}
	.st14{fill:url(#XMLID_121_);}
	.st15{fill:url(#XMLID_122_);}
	.st16{fill:url(#XMLID_123_);}
	.st17{fill:url(#XMLID_124_);}
	.st18{fill:url(#XMLID_125_);}
	.st19{fill:url(#XMLID_126_);}
	.st20{fill:url(#XMLID_127_);}
	.st21{fill:url(#XMLID_128_);}
	.st22{fill:url(#XMLID_129_);}
	.st23{fill:url(#XMLID_130_);}
	.st24{fill:url(#XMLID_131_);}
	.st25{fill:url(#XMLID_132_);}
	.st26{fill:url(#XMLID_133_);}
	.st27{fill:url(#XMLID_134_);}
	.st28{fill:url(#XMLID_135_);}
	.st29{fill:url(#XMLID_136_);}
	.st30{fill:url(#XMLID_137_);}
	.st31{fill:url(#XMLID_138_);}
	.st32{fill:#FFFFFF;stroke:#000000;stroke-miterlimit:10;}
	.st33{fill:url(#XMLID_139_);}
	.st34{fill:url(#XMLID_140_);}
	.st35{fill:url(#XMLID_141_);}
	.st36{fill:url(#XMLID_142_);}
	.st37{fill:url(#XMLID_143_);}
	.st38{fill:url(#XMLID_144_);}
	.st39{fill:url(#XMLID_145_);}
	.st40{fill:url(#XMLID_146_);}
	.st41{fill:url(#XMLID_147_);}
	.st42{fill:url(#XMLID_148_);}
	.st43{fill:url(#XMLID_149_);}
	.st44{fill:url(#XMLID_150_);}
	.st45{fill:url(#XMLID_151_);}
	.st46{fill:url(#XMLID_152_);}
</style>
<g id="XMLID_3_">
	<g id="XMLID_19_">
		<linearGradient id="XMLID_2_" gradientUnits="userSpaceOnUse" x1="-292.9385" y1="576.3873" x2="-292.9385" y2="603.2056">
			<stop  offset="0" style="stop-color:#129D37"/>
			<stop  offset="0.5025" style="stop-color:#007F37"/>
			<stop  offset="1" style="stop-color:#006837"/>
		</linearGradient>
		<path id="XMLID_21_" class="st0" d="M-301.7,603.2v-26.8h6.6c2.9,0,5.1,0.6,6.7,1.7c1,0.7,1.7,1.7,2.3,2.9c0.5,1,0.8,2.1,0.8,3.2
			c0,0.9-0.2,1.7-0.5,2.4c-0.3,0.7-0.9,1.4-1.6,2.2c2.2,1.7,3.3,3.8,3.3,6.2c0,2.5-1,4.5-3.1,6.2c-0.9,0.7-1.9,1.2-2.9,1.5
			c-1,0.3-2.3,0.5-3.8,0.5H-301.7z M-295.6,587h1c0.8,0,1.4,0,1.8-0.1c0.4-0.1,0.7-0.3,1-0.5c0.5-0.5,0.7-1.1,0.7-1.9
			c0-1.8-0.9-2.5-3.5-2.5h-1V587z M-295.6,597.4h1.5c1.7,0,2.4-0.2,3.1-0.7c0.5-0.5,0.8-1.1,0.8-1.9c0-1-0.3-1.7-1-2.1
			c-0.6-0.4-1.7-0.6-3.2-0.6h-1.2V597.4z"/>
		<linearGradient id="XMLID_10_" gradientUnits="userSpaceOnUse" x1="-270.7337" y1="576.3873" x2="-270.7337" y2="603.913">
			<stop  offset="0" style="stop-color:#129D37"/>
			<stop  offset="0.5025" style="stop-color:#007F37"/>
			<stop  offset="1" style="stop-color:#006837"/>
		</linearGradient>
		<path id="XMLID_75_" class="st1" d="M-274.6,576.4v16.4c0,1.8,0.2,2.9,0.5,3.5c0.6,0.9,2,1.6,3.4,1.6s2.8-0.7,3.4-1.6
			c0.3-0.6,0.5-1.7,0.5-3.5v-16.4h6.3v17.1c0,2.9-0.6,4.8-1.9,6.6c-1,1.3-2.3,2.3-3.8,2.9c-1.4,0.6-2.9,0.9-4.5,0.9
			c-2.3,0-4.3-0.6-6.1-1.9c-2.8-1.9-4-4.5-4-8.6v-17.1H-274.6z"/>
		<linearGradient id="XMLID_109_" gradientUnits="userSpaceOnUse" x1="-242.7889" y1="576.3873" x2="-242.7889" y2="603.2056">
			<stop  offset="0" style="stop-color:#129D37"/>
			<stop  offset="0.5025" style="stop-color:#007F37"/>
			<stop  offset="1" style="stop-color:#006837"/>
		</linearGradient>
		<path id="XMLID_77_" class="st2" d="M-255.8,603.2v-26.8h5.7l7.3,13.2l7.3-13.2h5.7v26.8h-6.3v-13.5l-4.6,8.3h-4.4l-4.6-8.3v13.5
			H-255.8z"/>
		<linearGradient id="XMLID_110_" gradientUnits="userSpaceOnUse" x1="-214.6836" y1="576.3873" x2="-214.6836" y2="603.2056">
			<stop  offset="0" style="stop-color:#129D37"/>
			<stop  offset="0.5025" style="stop-color:#007F37"/>
			<stop  offset="1" style="stop-color:#006837"/>
		</linearGradient>
		<path id="XMLID_79_" class="st3" d="M-210,597.6h-9.3l-1.8,5.6h-6.6l9.6-26.8h7l9.6,26.8h-6.7L-210,597.6z M-212,591.6l-2.7-8.2
			l-2.7,8.2H-212z"/>
		<linearGradient id="XMLID_111_" gradientUnits="userSpaceOnUse" x1="-190.8644" y1="576.3873" x2="-190.8644" y2="603.2056">
			<stop  offset="0" style="stop-color:#129D37"/>
			<stop  offset="0.5025" style="stop-color:#007F37"/>
			<stop  offset="1" style="stop-color:#006837"/>
		</linearGradient>
		<path id="XMLID_82_" class="st4" d="M-199.6,603.2v-26.8h6.6c2.9,0,5.1,0.6,6.7,1.7c1,0.7,1.7,1.7,2.3,2.9c0.5,1,0.8,2.1,0.8,3.2
			c0,0.9-0.2,1.7-0.5,2.4c-0.3,0.7-0.9,1.4-1.6,2.2c2.2,1.7,3.3,3.8,3.3,6.2c0,2.5-1,4.5-3.1,6.2c-0.9,0.7-1.9,1.2-2.9,1.5
			c-1,0.3-2.3,0.5-3.8,0.5H-199.6z M-193.6,587h1c0.8,0,1.4,0,1.8-0.1c0.4-0.1,0.7-0.3,1-0.5c0.5-0.5,0.7-1.1,0.7-1.9
			c0-1.8-0.9-2.5-3.5-2.5h-1V587z M-193.6,597.4h1.5c1.7,0,2.4-0.2,3.1-0.7c0.5-0.5,0.8-1.1,0.8-1.9c0-1-0.3-1.7-1-2.1
			c-0.6-0.4-1.7-0.6-3.2-0.6h-1.2V597.4z"/>
		<linearGradient id="XMLID_112_" gradientUnits="userSpaceOnUse" x1="-168.518" y1="576.3873" x2="-168.518" y2="603.2056">
			<stop  offset="0" style="stop-color:#129D37"/>
			<stop  offset="0.5025" style="stop-color:#007F37"/>
			<stop  offset="1" style="stop-color:#006837"/>
		</linearGradient>
		<path id="XMLID_86_" class="st5" d="M-163.9,597.6h-9.3l-1.8,5.6h-6.6l9.6-26.8h7l9.6,26.8h-6.7L-163.9,597.6z M-165.9,591.6
			l-2.7-8.2l-2.7,8.2H-165.9z"/>
	</g>
	<g id="XMLID_22_">
		<linearGradient id="XMLID_113_" gradientUnits="userSpaceOnUse" x1="-299.196" y1="605.5933" x2="-299.196" y2="614.5328">
			<stop  offset="0" style="stop-color:#FAC223"/>
			<stop  offset="0.3568" style="stop-color:#FAC223"/>
			<stop  offset="1" style="stop-color:#F0811E"/>
		</linearGradient>
		<path id="XMLID_23_" class="st6" d="M-301.6,614.5v-8.9h1.8c0.8,0,1.5,0.2,1.9,0.6c0.5,0.4,0.8,1.2,0.8,2c0,0.6-0.2,1.2-0.6,1.7
			c0.1,0.1,0.2,0.2,0.3,0.2c0.2,0.2,0.4,0.5,0.5,0.9c0.1,0.3,0.2,0.7,0.2,1.1c0,0.8-0.3,1.5-0.8,2c-0.3,0.2-0.5,0.4-0.8,0.5
			c-0.3,0.1-0.6,0.1-1.1,0.1H-301.6z M-300.3,609.3h0.6c0.3,0,0.5,0,0.6-0.1c0.1,0,0.3-0.1,0.4-0.2c0.2-0.2,0.3-0.5,0.3-0.9
			c0-0.4-0.1-0.7-0.3-0.9c-0.2-0.2-0.5-0.2-1-0.2h-0.6V609.3z M-300.3,613.1h0.7c0.3,0,0.5,0,0.7-0.1c0.2,0,0.3-0.1,0.4-0.2
			c0.2-0.2,0.4-0.5,0.4-0.9c0-0.4-0.2-0.8-0.5-1c-0.2-0.2-0.6-0.2-1.1-0.2h-0.6V613.1z"/>
		<linearGradient id="XMLID_114_" gradientUnits="userSpaceOnUse" x1="-293.4322" y1="608.3898" x2="-293.4322" y2="614.7292">
			<stop  offset="0" style="stop-color:#FAC223"/>
			<stop  offset="0.3568" style="stop-color:#FAC223"/>
			<stop  offset="1" style="stop-color:#F0811E"/>
		</linearGradient>
		<path id="XMLID_27_" class="st7" d="M-290.8,614.5h-1.3v-0.4c-0.4,0.4-0.9,0.6-1.4,0.6c-0.8,0-1.4-0.3-2-1
			c-0.5-0.6-0.7-1.3-0.7-2.1c0-1,0.3-1.7,0.9-2.4c0.5-0.5,1.1-0.8,1.8-0.8c0.5,0,0.9,0.2,1.4,0.6v-0.4h1.3V614.5z M-294.5,610.4
			c-0.2,0.3-0.3,0.7-0.3,1.2c0,0.6,0.1,1,0.4,1.3c0.3,0.3,0.6,0.5,1,0.5c0.4,0,0.8-0.2,1.1-0.6c0.2-0.3,0.3-0.7,0.3-1.2
			c0-0.5-0.1-1-0.4-1.3c-0.3-0.3-0.6-0.5-1-0.5C-293.9,609.8-294.2,610-294.5,610.4z"/>
		<linearGradient id="XMLID_115_" gradientUnits="userSpaceOnUse" x1="-287.2376" y1="608.3898" x2="-287.2376" y2="614.5328">
			<stop  offset="0" style="stop-color:#FAC223"/>
			<stop  offset="0.3568" style="stop-color:#FAC223"/>
			<stop  offset="1" style="stop-color:#F0811E"/>
		</linearGradient>
		<path id="XMLID_30_" class="st8" d="M-288.2,608.9c0.4-0.3,0.8-0.5,1.2-0.5c0.6,0,1.2,0.3,1.6,0.8c0.4,0.5,0.6,1.1,0.6,2.2v3.2
			h-1.3v-3.1c0-0.7-0.1-1.1-0.3-1.3c-0.2-0.2-0.4-0.3-0.7-0.3c-0.4,0-0.7,0.1-0.9,0.4c-0.2,0.2-0.2,0.7-0.2,1.4v3h-1.3v-5.9h1.3
			V608.9z"/>
		<linearGradient id="XMLID_116_" gradientUnits="userSpaceOnUse" x1="-281.3674" y1="608.3898" x2="-281.3674" y2="617.8597">
			<stop  offset="0" style="stop-color:#FAC223"/>
			<stop  offset="0.3568" style="stop-color:#FAC223"/>
			<stop  offset="1" style="stop-color:#F0811E"/>
		</linearGradient>
		<path id="XMLID_32_" class="st9" d="M-280,614.2c-0.3,0.2-0.5,0.4-0.7,0.5c-0.2,0.1-0.4,0.1-0.7,0.1c-0.8,0-1.4-0.3-2-1
			c-0.5-0.6-0.7-1.3-0.7-2.1c0-1,0.3-1.7,0.9-2.4c0.5-0.5,1.1-0.8,1.8-0.8c0.3,0,0.5,0,0.7,0.1s0.4,0.2,0.7,0.5v-0.4h1.3v6.1
			c0,0.9-0.2,1.6-0.6,2.1c-0.5,0.7-1.2,1.1-2.1,1.1c-0.7,0-1.3-0.2-1.8-0.7c-0.1-0.1-0.4-0.4-0.7-0.8l0.9-1c0.1,0.1,0.2,0.2,0.2,0.3
			c0.2,0.3,0.4,0.5,0.6,0.6c0.3,0.2,0.5,0.3,0.9,0.3c0.9,0,1.4-0.7,1.4-1.8V614.2z M-282.4,610.4c-0.2,0.3-0.3,0.7-0.3,1.2
			c0,0.6,0.1,1,0.4,1.3c0.3,0.3,0.6,0.5,1,0.5c0.4,0,0.8-0.2,1.1-0.6c0.2-0.3,0.3-0.7,0.3-1.2c0-0.6-0.1-1-0.4-1.3
			c-0.2-0.3-0.6-0.5-1-0.5C-281.8,609.8-282.1,610-282.4,610.4z"/>
		<linearGradient id="XMLID_117_" gradientUnits="userSpaceOnUse" x1="-274.9796" y1="605.5933" x2="-274.9796" y2="614.5328">
			<stop  offset="0" style="stop-color:#FAC223"/>
			<stop  offset="0.3568" style="stop-color:#FAC223"/>
			<stop  offset="1" style="stop-color:#F0811E"/>
		</linearGradient>
		<path id="XMLID_35_" class="st10" d="M-274.8,611.1l2.3,3.4h-1.6l-1.6-2.4l-0.5,0.6v1.9h-1.3v-8.9h1.3v5.1l1.8-2.1h1.7
			L-274.8,611.1z"/>
		<linearGradient id="XMLID_118_" gradientUnits="userSpaceOnUse" x1="-271.312" y1="605.6326" x2="-271.312" y2="614.5328">
			<stop  offset="0" style="stop-color:#FAC223"/>
			<stop  offset="0.3568" style="stop-color:#FAC223"/>
			<stop  offset="1" style="stop-color:#F0811E"/>
		</linearGradient>
		<path id="XMLID_37_" class="st11" d="M-270.7,605.9c0.2,0.2,0.2,0.4,0.2,0.7c0,0.3-0.1,0.5-0.2,0.7c-0.2,0.2-0.4,0.3-0.6,0.3
			s-0.4-0.1-0.6-0.3c-0.2-0.2-0.2-0.4-0.2-0.7c0-0.3,0.1-0.5,0.2-0.7c0.2-0.2,0.4-0.3,0.6-0.3C-271.1,605.6-270.9,605.7-270.7,605.9
			z M-270.7,608.6v5.9h-1.3v-5.9H-270.7z"/>
		<linearGradient id="XMLID_119_" gradientUnits="userSpaceOnUse" x1="-268.5669" y1="606.7132" x2="-268.5669" y2="614.6441">
			<stop  offset="0" style="stop-color:#FAC223"/>
			<stop  offset="0.3568" style="stop-color:#FAC223"/>
			<stop  offset="1" style="stop-color:#F0811E"/>
		</linearGradient>
		<path id="XMLID_40_" class="st12" d="M-268.1,610v2.7c0,0.4,0.1,0.6,0.3,0.6c0.1,0,0.3-0.1,0.6-0.2v1.4c-0.3,0.1-0.5,0.2-0.8,0.2
			c-0.9,0-1.4-0.7-1.4-2V610h-0.5v-1.4h0.5v-1.3l1.3-0.6v1.9h0.8v1.4H-268.1z"/>
		<linearGradient id="XMLID_120_" gradientUnits="userSpaceOnUse" x1="-260.6988" y1="605.5933" x2="-260.6988" y2="614.7292">
			<stop  offset="0" style="stop-color:#FAC223"/>
			<stop  offset="0.3568" style="stop-color:#FAC223"/>
			<stop  offset="1" style="stop-color:#F0811E"/>
		</linearGradient>
		<path id="XMLID_42_" class="st13" d="M-262.2,605.6v5.5c0,0.4,0,0.7,0,0.9c0,0.2,0.1,0.4,0.2,0.5c0.1,0.2,0.3,0.4,0.5,0.5
			c0.2,0.1,0.5,0.2,0.8,0.2s0.5-0.1,0.8-0.2c0.2-0.1,0.4-0.3,0.5-0.5c0.1-0.1,0.1-0.3,0.2-0.5c0-0.2,0-0.5,0-0.9v-5.5h1.4v5.7
			c0,1-0.2,1.6-0.5,2.1c-0.3,0.4-0.6,0.7-1.1,0.9c-0.4,0.2-0.8,0.3-1.3,0.3c-0.6,0-1.2-0.2-1.7-0.6c-0.8-0.6-1.1-1.4-1.1-2.8v-5.7
			H-262.2z"/>
		<linearGradient id="XMLID_121_" gradientUnits="userSpaceOnUse" x1="-254.8679" y1="608.3898" x2="-254.8679" y2="614.7292">
			<stop  offset="0" style="stop-color:#FAC223"/>
			<stop  offset="0.3568" style="stop-color:#FAC223"/>
			<stop  offset="1" style="stop-color:#F0811E"/>
		</linearGradient>
		<path id="XMLID_44_" class="st14" d="M-254,610.4c-0.3-0.5-0.5-0.6-0.8-0.6c-0.3,0-0.5,0.2-0.5,0.5c0,0.1,0,0.2,0.1,0.3
			c0.1,0.1,0.2,0.2,0.5,0.3l0.5,0.2c0.3,0.2,0.6,0.3,0.8,0.5c0.3,0.3,0.5,0.7,0.5,1.2c0,0.6-0.2,1.1-0.6,1.5
			c-0.4,0.4-0.8,0.5-1.3,0.5c-0.7,0-1.2-0.3-1.6-0.9c-0.1-0.2-0.3-0.5-0.4-0.9l1.1-0.5c0.2,0.4,0.3,0.6,0.4,0.8
			c0.1,0.1,0.3,0.2,0.5,0.2c0.4,0,0.6-0.2,0.6-0.6c0-0.1,0-0.2-0.1-0.3c-0.1-0.1-0.3-0.2-0.5-0.3l-0.5-0.2c-0.8-0.3-1.1-0.9-1.1-1.7
			c0-0.6,0.2-1,0.6-1.4c0.3-0.3,0.8-0.5,1.2-0.5c0.8,0,1.3,0.4,1.8,1.4L-254,610.4z"/>
		<linearGradient id="XMLID_122_" gradientUnits="userSpaceOnUse" x1="-249.6832" y1="608.3898" x2="-249.6832" y2="614.7292">
			<stop  offset="0" style="stop-color:#FAC223"/>
			<stop  offset="0.3568" style="stop-color:#FAC223"/>
			<stop  offset="1" style="stop-color:#F0811E"/>
		</linearGradient>
		<path id="XMLID_46_" class="st15" d="M-247,614.5h-1.3v-0.4c-0.4,0.4-0.9,0.6-1.4,0.6c-0.8,0-1.4-0.3-2-1
			c-0.5-0.6-0.7-1.3-0.7-2.1c0-1,0.3-1.7,0.9-2.4c0.5-0.5,1.1-0.8,1.8-0.8c0.5,0,0.9,0.2,1.4,0.6v-0.4h1.3V614.5z M-250.7,610.4
			c-0.2,0.3-0.3,0.7-0.3,1.2c0,0.6,0.1,1,0.4,1.3c0.3,0.3,0.6,0.5,1,0.5c0.4,0,0.8-0.2,1.1-0.6c0.2-0.3,0.3-0.7,0.3-1.2
			c0-0.5-0.1-1-0.4-1.3c-0.3-0.3-0.6-0.5-1-0.5C-250.1,609.8-250.5,610-250.7,610.4z"/>
		<linearGradient id="XMLID_123_" gradientUnits="userSpaceOnUse" x1="-243.4886" y1="605.5933" x2="-243.4886" y2="614.5328">
			<stop  offset="0" style="stop-color:#FAC223"/>
			<stop  offset="0.3568" style="stop-color:#FAC223"/>
			<stop  offset="1" style="stop-color:#F0811E"/>
		</linearGradient>
		<path id="XMLID_49_" class="st16" d="M-244.5,608.9c0.4-0.3,0.8-0.5,1.2-0.5c0.6,0,1.2,0.3,1.6,0.8c0.4,0.5,0.6,1.1,0.6,2.2v3.2
			h-1.3v-3.1c0-0.7-0.1-1.1-0.3-1.3c-0.2-0.2-0.4-0.3-0.7-0.3c-0.4,0-0.7,0.1-0.9,0.4c-0.2,0.2-0.2,0.7-0.2,1.4v3h-1.3v-8.9h1.3
			V608.9z"/>
		<linearGradient id="XMLID_124_" gradientUnits="userSpaceOnUse" x1="-237.6184" y1="608.3898" x2="-237.6184" y2="614.7292">
			<stop  offset="0" style="stop-color:#FAC223"/>
			<stop  offset="0.3568" style="stop-color:#FAC223"/>
			<stop  offset="1" style="stop-color:#F0811E"/>
		</linearGradient>
		<path id="XMLID_51_" class="st17" d="M-234.9,614.5h-1.3v-0.4c-0.4,0.4-0.9,0.6-1.4,0.6c-0.8,0-1.4-0.3-2-1
			c-0.5-0.6-0.7-1.3-0.7-2.1c0-1,0.3-1.7,0.9-2.4c0.5-0.5,1.1-0.8,1.8-0.8c0.5,0,0.9,0.2,1.4,0.6v-0.4h1.3V614.5z M-238.7,610.4
			c-0.2,0.3-0.3,0.7-0.3,1.2c0,0.6,0.1,1,0.4,1.3c0.3,0.3,0.6,0.5,1,0.5c0.4,0,0.8-0.2,1.1-0.6c0.2-0.3,0.3-0.7,0.3-1.2
			c0-0.5-0.1-1-0.4-1.3c-0.3-0.3-0.6-0.5-1-0.5C-238,609.8-238.4,610-238.7,610.4z"/>
		<linearGradient id="XMLID_125_" gradientUnits="userSpaceOnUse" x1="-227.1173" y1="605.5933" x2="-227.1173" y2="614.5328">
			<stop  offset="0" style="stop-color:#FAC223"/>
			<stop  offset="0.3568" style="stop-color:#FAC223"/>
			<stop  offset="1" style="stop-color:#F0811E"/>
		</linearGradient>
		<path id="XMLID_54_" class="st18" d="M-230.9,614.5v-8.9h1.3l2.5,5.2l2.5-5.2h1.3v8.9h-1.4v-5.9l-1.9,4h-1l-1.9-4v5.9H-230.9z"/>
		<linearGradient id="XMLID_126_" gradientUnits="userSpaceOnUse" x1="-219.566" y1="608.3898" x2="-219.566" y2="614.7292">
			<stop  offset="0" style="stop-color:#FAC223"/>
			<stop  offset="0.3568" style="stop-color:#FAC223"/>
			<stop  offset="1" style="stop-color:#F0811E"/>
		</linearGradient>
		<path id="XMLID_56_" class="st19" d="M-216.9,614.5h-1.3v-0.4c-0.4,0.4-0.9,0.6-1.4,0.6c-0.8,0-1.4-0.3-2-1
			c-0.5-0.6-0.7-1.3-0.7-2.1c0-1,0.3-1.7,0.9-2.4c0.5-0.5,1.1-0.8,1.8-0.8c0.5,0,0.9,0.2,1.4,0.6v-0.4h1.3V614.5z M-220.6,610.4
			c-0.2,0.3-0.3,0.7-0.3,1.2c0,0.6,0.1,1,0.4,1.3c0.3,0.3,0.6,0.5,1,0.5c0.4,0,0.8-0.2,1.1-0.6c0.2-0.3,0.3-0.7,0.3-1.2
			c0-0.5-0.1-1-0.4-1.3c-0.3-0.3-0.6-0.5-1-0.5C-220,609.8-220.3,610-220.6,610.4z"/>
		<linearGradient id="XMLID_127_" gradientUnits="userSpaceOnUse" x1="-213.3713" y1="608.3898" x2="-213.3713" y2="614.5328">
			<stop  offset="0" style="stop-color:#FAC223"/>
			<stop  offset="0.3568" style="stop-color:#FAC223"/>
			<stop  offset="1" style="stop-color:#F0811E"/>
		</linearGradient>
		<path id="XMLID_59_" class="st20" d="M-214.4,608.9c0.4-0.3,0.8-0.5,1.2-0.5c0.6,0,1.2,0.3,1.6,0.8c0.4,0.5,0.6,1.1,0.6,2.2v3.2
			h-1.3v-3.1c0-0.7-0.1-1.1-0.3-1.3c-0.2-0.2-0.4-0.3-0.7-0.3c-0.4,0-0.7,0.1-0.9,0.4c-0.2,0.2-0.2,0.7-0.2,1.4v3h-1.3v-5.9h1.3
			V608.9z"/>
		<linearGradient id="XMLID_128_" gradientUnits="userSpaceOnUse" x1="-207.5011" y1="605.5933" x2="-207.5011" y2="614.7292">
			<stop  offset="0" style="stop-color:#FAC223"/>
			<stop  offset="0.3568" style="stop-color:#FAC223"/>
			<stop  offset="1" style="stop-color:#F0811E"/>
		</linearGradient>
		<path id="XMLID_61_" class="st21" d="M-204.8,614.5h-1.3v-0.4c-0.4,0.4-0.9,0.6-1.4,0.6c-0.8,0-1.4-0.3-2-1
			c-0.5-0.6-0.7-1.3-0.7-2.1c0-1,0.3-1.7,0.9-2.4c0.5-0.5,1.1-0.8,1.8-0.8c0.5,0,0.9,0.2,1.4,0.6v-3.4h1.3V614.5z M-208.5,610.4
			c-0.2,0.3-0.3,0.7-0.3,1.2c0,0.6,0.1,1,0.4,1.3c0.3,0.3,0.6,0.5,1,0.5c0.4,0,0.8-0.2,1.1-0.6c0.2-0.3,0.3-0.7,0.3-1.2
			c0-0.5-0.1-1-0.4-1.3c-0.3-0.3-0.6-0.5-1-0.5C-207.9,609.8-208.3,610-208.5,610.4z"/>
		<linearGradient id="XMLID_129_" gradientUnits="userSpaceOnUse" x1="-202.9635" y1="605.6326" x2="-202.9635" y2="614.5328">
			<stop  offset="0" style="stop-color:#FAC223"/>
			<stop  offset="0.3568" style="stop-color:#FAC223"/>
			<stop  offset="1" style="stop-color:#F0811E"/>
		</linearGradient>
		<path id="XMLID_64_" class="st22" d="M-202.4,605.9c0.2,0.2,0.2,0.4,0.2,0.7c0,0.3-0.1,0.5-0.2,0.7c-0.2,0.2-0.4,0.3-0.6,0.3
			s-0.4-0.1-0.6-0.3c-0.2-0.2-0.2-0.4-0.2-0.7c0-0.3,0.1-0.5,0.2-0.7c0.2-0.2,0.4-0.3,0.6-0.3C-202.7,605.6-202.5,605.7-202.4,605.9
			z M-202.3,608.6v5.9h-1.3v-5.9H-202.3z"/>
		<linearGradient id="XMLID_130_" gradientUnits="userSpaceOnUse" x1="-199.6982" y1="608.5469" x2="-199.6982" y2="614.5328">
			<stop  offset="0" style="stop-color:#FAC223"/>
			<stop  offset="0.3568" style="stop-color:#FAC223"/>
			<stop  offset="1" style="stop-color:#F0811E"/>
		</linearGradient>
		<path id="XMLID_67_" class="st23" d="M-199.8,609c0.3-0.3,0.6-0.4,1-0.4c0.1,0,0.3,0,0.5,0v1.4c-0.2,0-0.4,0-0.5,0
			c-0.4,0-0.6,0.1-0.8,0.4c-0.1,0.3-0.2,0.7-0.2,1.4v2.9h-1.3v-5.9h1.3V609z"/>
		<linearGradient id="XMLID_131_" gradientUnits="userSpaceOnUse" x1="-196.9142" y1="605.6326" x2="-196.9142" y2="614.5328">
			<stop  offset="0" style="stop-color:#FAC223"/>
			<stop  offset="0.3568" style="stop-color:#FAC223"/>
			<stop  offset="1" style="stop-color:#F0811E"/>
		</linearGradient>
		<path id="XMLID_69_" class="st24" d="M-196.3,605.9c0.2,0.2,0.2,0.4,0.2,0.7c0,0.3-0.1,0.5-0.2,0.7c-0.2,0.2-0.4,0.3-0.6,0.3
			s-0.4-0.1-0.6-0.3c-0.2-0.2-0.2-0.4-0.2-0.7c0-0.3,0.1-0.5,0.2-0.7c0.2-0.2,0.4-0.3,0.6-0.3C-196.7,605.6-196.5,605.7-196.3,605.9
			z M-196.3,608.6v5.9h-1.3v-5.9H-196.3z"/>
		<linearGradient id="XMLID_132_" gradientUnits="userSpaceOnUse" x1="-189.7732" y1="605.5933" x2="-189.7732" y2="614.5328">
			<stop  offset="0" style="stop-color:#FAC223"/>
			<stop  offset="0.3568" style="stop-color:#FAC223"/>
			<stop  offset="1" style="stop-color:#F0811E"/>
		</linearGradient>
		<path id="XMLID_90_" class="st25" d="M-192.2,614.5v-8.9h1.8c0.8,0,1.5,0.2,1.9,0.6c0.5,0.4,0.8,1.2,0.8,2c0,0.6-0.2,1.2-0.6,1.7
			c0.1,0.1,0.2,0.2,0.3,0.2c0.2,0.2,0.4,0.5,0.5,0.9c0.1,0.3,0.2,0.7,0.2,1.1c0,0.8-0.3,1.5-0.8,2c-0.3,0.2-0.5,0.4-0.8,0.5
			c-0.3,0.1-0.6,0.1-1.1,0.1H-192.2z M-190.9,609.3h0.6c0.3,0,0.5,0,0.6-0.1c0.1,0,0.3-0.1,0.4-0.2c0.2-0.2,0.3-0.5,0.3-0.9
			c0-0.4-0.1-0.7-0.3-0.9c-0.2-0.2-0.5-0.2-1-0.2h-0.6V609.3z M-190.9,613.1h0.7c0.3,0,0.5,0,0.7-0.1c0.2,0,0.3-0.1,0.4-0.2
			c0.2-0.2,0.4-0.5,0.4-0.9c0-0.4-0.2-0.8-0.5-1c-0.2-0.2-0.6-0.2-1.1-0.2h-0.6V613.1z"/>
		<linearGradient id="XMLID_133_" gradientUnits="userSpaceOnUse" x1="-184.1356" y1="608.3898" x2="-184.1356" y2="614.7292">
			<stop  offset="0" style="stop-color:#FAC223"/>
			<stop  offset="0.3568" style="stop-color:#FAC223"/>
			<stop  offset="1" style="stop-color:#F0811E"/>
		</linearGradient>
		<path id="XMLID_94_" class="st26" d="M-185.3,612.1c0.1,0.3,0.2,0.6,0.3,0.8c0.3,0.3,0.6,0.5,0.9,0.5c0.4,0,0.8-0.2,1.1-0.5
			c0.1-0.1,0.1-0.2,0.3-0.4l1.1,0.5c-0.3,0.5-0.5,0.9-0.8,1.1c-0.5,0.5-1,0.7-1.7,0.7c-0.8,0-1.5-0.3-2-1c-0.4-0.6-0.7-1.3-0.7-2.1
			c0-0.6,0.1-1.1,0.3-1.6c0.2-0.5,0.6-0.9,1-1.2c0.4-0.3,0.8-0.4,1.3-0.4c0.7,0,1.3,0.3,1.8,0.9c0.5,0.6,0.7,1.4,0.7,2.4
			c0,0.1,0,0.2,0,0.4H-185.3z M-182.9,611c-0.2-0.8-0.6-1.3-1.2-1.3c-0.6,0-1,0.4-1.2,1.3H-182.9z"/>
		<linearGradient id="XMLID_134_" gradientUnits="userSpaceOnUse" x1="-179.3125" y1="608.5469" x2="-179.3125" y2="614.5328">
			<stop  offset="0" style="stop-color:#FAC223"/>
			<stop  offset="0.3568" style="stop-color:#FAC223"/>
			<stop  offset="1" style="stop-color:#F0811E"/>
		</linearGradient>
		<path id="XMLID_97_" class="st27" d="M-179.4,609c0.3-0.3,0.6-0.4,1-0.4c0.1,0,0.3,0,0.5,0v1.4c-0.2,0-0.4,0-0.5,0
			c-0.4,0-0.6,0.1-0.8,0.4c-0.1,0.3-0.2,0.7-0.2,1.4v2.9h-1.3v-5.9h1.3V609z"/>
		<linearGradient id="XMLID_135_" gradientUnits="userSpaceOnUse" x1="-175.6243" y1="608.3898" x2="-175.6243" y2="614.7292">
			<stop  offset="0" style="stop-color:#FAC223"/>
			<stop  offset="0.3568" style="stop-color:#FAC223"/>
			<stop  offset="1" style="stop-color:#F0811E"/>
		</linearGradient>
		<path id="XMLID_99_" class="st28" d="M-174.7,610.4c-0.3-0.5-0.5-0.6-0.8-0.6c-0.3,0-0.5,0.2-0.5,0.5c0,0.1,0,0.2,0.1,0.3
			c0.1,0.1,0.2,0.2,0.5,0.3l0.5,0.2c0.3,0.2,0.6,0.3,0.8,0.5c0.3,0.3,0.5,0.7,0.5,1.2c0,0.6-0.2,1.1-0.6,1.5
			c-0.4,0.4-0.8,0.5-1.3,0.5c-0.7,0-1.2-0.3-1.6-0.9c-0.1-0.2-0.3-0.5-0.4-0.9l1.1-0.5c0.2,0.4,0.3,0.6,0.4,0.8
			c0.1,0.1,0.3,0.2,0.5,0.2c0.4,0,0.6-0.2,0.6-0.6c0-0.1,0-0.2-0.1-0.3c-0.1-0.1-0.3-0.2-0.5-0.3l-0.5-0.2c-0.8-0.3-1.1-0.9-1.1-1.7
			c0-0.6,0.2-1,0.6-1.4c0.3-0.3,0.8-0.5,1.2-0.5c0.8,0,1.3,0.4,1.8,1.4L-174.7,610.4z"/>
		<linearGradient id="XMLID_136_" gradientUnits="userSpaceOnUse" x1="-170.4398" y1="608.3898" x2="-170.4398" y2="614.7292">
			<stop  offset="0" style="stop-color:#FAC223"/>
			<stop  offset="0.3568" style="stop-color:#FAC223"/>
			<stop  offset="1" style="stop-color:#F0811E"/>
		</linearGradient>
		<path id="XMLID_101_" class="st29" d="M-167.8,614.5h-1.3v-0.4c-0.4,0.4-0.9,0.6-1.4,0.6c-0.8,0-1.4-0.3-2-1
			c-0.5-0.6-0.7-1.3-0.7-2.1c0-1,0.3-1.7,0.9-2.4c0.5-0.5,1.1-0.8,1.8-0.8c0.5,0,0.9,0.2,1.4,0.6v-0.4h1.3V614.5z M-171.5,610.4
			c-0.2,0.3-0.3,0.7-0.3,1.2c0,0.6,0.1,1,0.4,1.3c0.3,0.3,0.6,0.5,1,0.5c0.4,0,0.8-0.2,1.1-0.6c0.2-0.3,0.3-0.7,0.3-1.2
			c0-0.5-0.1-1-0.4-1.3c-0.3-0.3-0.6-0.5-1-0.5C-170.9,609.8-171.2,610-171.5,610.4z"/>
		<linearGradient id="XMLID_137_" gradientUnits="userSpaceOnUse" x1="-162.7728" y1="608.3898" x2="-162.7728" y2="614.5328">
			<stop  offset="0" style="stop-color:#FAC223"/>
			<stop  offset="0.3568" style="stop-color:#FAC223"/>
			<stop  offset="1" style="stop-color:#F0811E"/>
		</linearGradient>
		<path id="XMLID_104_" class="st30" d="M-161.2,608.4c0.7,0,1.3,0.3,1.7,0.9c0.2,0.3,0.4,0.7,0.4,1.1c0,0.3,0.1,0.6,0.1,1v3.2h-1.3
			v-3.1c0-0.7-0.1-1.1-0.2-1.3c-0.1-0.2-0.3-0.3-0.6-0.3c-0.3,0-0.6,0.1-0.8,0.4c-0.1,0.2-0.2,0.7-0.2,1.4v3h-1.3v-3.1
			c0-0.7-0.1-1.1-0.2-1.3c-0.1-0.2-0.4-0.3-0.6-0.3c-0.3,0-0.6,0.1-0.8,0.4c-0.1,0.2-0.2,0.7-0.2,1.4v3h-1.3v-5.9h1.3v0.3
			c0.2-0.2,0.4-0.3,0.5-0.4c0.2-0.1,0.4-0.1,0.6-0.1c0.5,0,1,0.2,1.4,0.7C-162.3,608.6-161.8,608.4-161.2,608.4z"/>
		<linearGradient id="XMLID_138_" gradientUnits="userSpaceOnUse" x1="-155.4315" y1="608.3898" x2="-155.4315" y2="614.7292">
			<stop  offset="0" style="stop-color:#FAC223"/>
			<stop  offset="0.3568" style="stop-color:#FAC223"/>
			<stop  offset="1" style="stop-color:#F0811E"/>
		</linearGradient>
		<path id="XMLID_106_" class="st31" d="M-152.8,614.5h-1.3v-0.4c-0.4,0.4-0.9,0.6-1.4,0.6c-0.8,0-1.4-0.3-2-1
			c-0.5-0.6-0.7-1.3-0.7-2.1c0-1,0.3-1.7,0.9-2.4c0.5-0.5,1.1-0.8,1.8-0.8c0.5,0,0.9,0.2,1.4,0.6v-0.4h1.3V614.5z M-156.5,610.4
			c-0.2,0.3-0.3,0.7-0.3,1.2c0,0.6,0.1,1,0.4,1.3c0.3,0.3,0.6,0.5,1,0.5c0.4,0,0.8-0.2,1.1-0.6c0.2-0.3,0.3-0.7,0.3-1.2
			c0-0.5-0.1-1-0.4-1.3c-0.3-0.3-0.6-0.5-1-0.5C-155.9,609.8-156.2,610-156.5,610.4z"/>
	</g>
</g>
<g id="XMLID_71_">
	<path id="XMLID_4_" class="st32" d="M-321.8,576.6"/>
	<linearGradient id="XMLID_139_" gradientUnits="userSpaceOnUse" x1="-316.4176" y1="601.4514" x2="-307.1634" y2="601.4514">
		<stop  offset="0" style="stop-color:#F0811E"/>
		<stop  offset="0.4975" style="stop-color:#FAC223"/>
		<stop  offset="1" style="stop-color:#FAC223"/>
	</linearGradient>
	<path id="XMLID_8_" class="st33" d="M-315.8,598.5c0,0,1.5-0.1,4.1,1.1c2.5,1.2,4.3-1.7,4.3-1.7l0.3,2.6c0,0-2.7,5.2-6.3,4.4
		C-318.3,604-315.8,598.5-315.8,598.5z"/>
	<linearGradient id="XMLID_140_" gradientUnits="userSpaceOnUse" x1="-323.7872" y1="589.8376" x2="-305.3131" y2="589.8376">
		<stop  offset="0" style="stop-color:#129D37"/>
		<stop  offset="0.5025" style="stop-color:#007F37"/>
		<stop  offset="1" style="stop-color:#006837"/>
	</linearGradient>
	<path id="XMLID_5_" class="st34" d="M-321.8,576.6c0,0,0.3,5.3,11.2,10.8c10.9,5.5,1.6,15.6,1.6,15.6s3.7-6.7-6.9-10.5
		C-329,587.8-321.8,576.6-321.8,576.6z"/>
	<linearGradient id="XMLID_141_" gradientUnits="userSpaceOnUse" x1="-318.129" y1="606.6219" x2="-306.9708" y2="606.6219">
		<stop  offset="0" style="stop-color:#FAC223"/>
		<stop  offset="0.5025" style="stop-color:#FAC223"/>
		<stop  offset="1" style="stop-color:#F0811E"/>
	</linearGradient>
	<path id="XMLID_6_" class="st35" d="M-315.8,598.5c0,0-2.6,4.3,4.4,7.1c7,2.8,3.5,9.1,3.5,9.1s-1.6-4-6.7-6.3
		C-321.8,605.1-315.8,598.5-315.8,598.5z"/>
	<linearGradient id="XMLID_142_" gradientUnits="userSpaceOnUse" x1="-323.7872" y1="589.8376" x2="-307.3608" y2="589.8376">
		<stop  offset="0" style="stop-color:#006837"/>
		<stop  offset="0.4975" style="stop-color:#007F37"/>
		<stop  offset="1" style="stop-color:#129D37"/>
	</linearGradient>
	<path id="XMLID_11_" class="st36" d="M-309,603c0,0,0.3-0.4,0.8-1l0.2-0.3c1.5-4.8,1-8.2-8.1-13.2c-9-5-5.7-11.9-5.7-11.9
		s-7.2,11.2,6,15.9C-305.3,596.3-309,603-309,603z"/>
	<linearGradient id="XMLID_143_" gradientUnits="userSpaceOnUse" x1="-318.1291" y1="607.2456" x2="-307.7447" y2="607.2456">
		<stop  offset="0" style="stop-color:#F0811E"/>
		<stop  offset="0.4975" style="stop-color:#FAC223"/>
		<stop  offset="1" style="stop-color:#FAC223"/>
	</linearGradient>
	<path id="XMLID_12_" class="st37" d="M-313.3,606.6c-5-2.3-4.3-5.2-3.4-6.9c-1.4,2.1-3.1,6.3,2.2,8.7c4.9,2.2,6.6,5.9,6.7,6.3
		C-307.6,613.2-307.5,609.3-313.3,606.6z"/>
	
		<linearGradient id="XMLID_144_" gradientUnits="userSpaceOnUse" x1="-304.7824" y1="568.1294" x2="-299.6276" y2="568.1294" gradientTransform="matrix(0.9885 0.1514 -0.1514 0.9885 66.6552 61.6768)">
		<stop  offset="0" style="stop-color:#F0811E"/>
		<stop  offset="0.4975" style="stop-color:#FAC223"/>
		<stop  offset="1" style="stop-color:#FAC223"/>
	</linearGradient>
	<polygon id="XMLID_7_" class="st38" points="-317.9,576.2 -316.1,575.2 -317.1,577.1 -315.6,578.6 -317.6,578.2 -318.4,580.1 
		-318.7,578 -320.7,577.7 -318.9,576.8 -319.3,574.7 	"/>
	
		<linearGradient id="XMLID_145_" gradientUnits="userSpaceOnUse" x1="-300.5244" y1="571.4429" x2="-296.0352" y2="571.4429" gradientTransform="matrix(0.9885 0.1514 -0.1514 0.9885 66.6552 61.6768)">
		<stop  offset="0" style="stop-color:#F0811E"/>
		<stop  offset="0.4975" style="stop-color:#FAC223"/>
		<stop  offset="1" style="stop-color:#FAC223"/>
	</linearGradient>
	<polygon id="XMLID_9_" class="st39" points="-314.5,580.3 -313,579.4 -313.8,581 -312.5,582.3 -314.3,582 -315,583.7 -315.2,581.8 
		-317,581.6 -315.4,580.8 -315.7,578.9 	"/>
	
		<linearGradient id="XMLID_146_" gradientUnits="userSpaceOnUse" x1="-296.2918" y1="574.0984" x2="-293.0701" y2="574.0984" gradientTransform="matrix(0.9885 0.1514 -0.1514 0.9885 66.6552 61.6768)">
		<stop  offset="0" style="stop-color:#F0811E"/>
		<stop  offset="0.4975" style="stop-color:#FAC223"/>
		<stop  offset="1" style="stop-color:#FAC223"/>
	</linearGradient>
	<polygon id="XMLID_13_" class="st40" points="-311.4,583.8 -310.3,583.1 -310.9,584.3 -310,585.2 -311.2,585 -311.8,586.2 
		-311.9,584.9 -313.2,584.7 -312,584.1 -312.3,582.8 	"/>
	
		<linearGradient id="XMLID_147_" gradientUnits="userSpaceOnUse" x1="-293.1627" y1="575.7567" x2="-291.0149" y2="575.7567" gradientTransform="matrix(0.9885 0.1514 -0.1514 0.9885 66.6552 61.6768)">
		<stop  offset="0" style="stop-color:#F0811E"/>
		<stop  offset="0.4975" style="stop-color:#FAC223"/>
		<stop  offset="1" style="stop-color:#FAC223"/>
	</linearGradient>
	<polygon id="XMLID_14_" class="st41" points="-309.1,586.1 -308.4,585.6 -308.8,586.4 -308.2,587 -309,586.9 -309.4,587.7 
		-309.5,586.8 -310.3,586.7 -309.6,586.3 -309.7,585.4 	"/>
	
		<linearGradient id="XMLID_148_" gradientUnits="userSpaceOnUse" x1="-290.4732" y1="603.7485" x2="-287.6811" y2="603.7485" gradientTransform="matrix(0.9885 0.1514 -0.1514 0.9885 66.6552 61.6768)">
		<stop  offset="0" style="stop-color:#129D37"/>
		<stop  offset="0.5025" style="stop-color:#007F37"/>
		<stop  offset="1" style="stop-color:#006837"/>
	</linearGradient>
	<polygon id="XMLID_15_" class="st42" points="-310.4,614 -309.4,613.5 -309.9,614.5 -309.1,615.3 -310.2,615.1 -310.7,616.1 
		-310.8,615 -311.9,614.8 -310.9,614.3 -311.1,613.2 	"/>
	
		<linearGradient id="XMLID_149_" gradientUnits="userSpaceOnUse" x1="-293.1581" y1="601.6164" x2="-290.3659" y2="601.6164" gradientTransform="matrix(0.9885 0.1514 -0.1514 0.9885 66.6552 61.6768)">
		<stop  offset="0" style="stop-color:#129D37"/>
		<stop  offset="0.5025" style="stop-color:#007F37"/>
		<stop  offset="1" style="stop-color:#006837"/>
	</linearGradient>
	<polygon id="XMLID_16_" class="st43" points="-312.7,611.5 -311.8,610.9 -312.3,612 -311.5,612.8 -312.5,612.6 -313,613.6 
		-313.2,612.5 -314.2,612.3 -313.3,611.8 -313.5,610.7 	"/>
	
		<linearGradient id="XMLID_150_" gradientUnits="userSpaceOnUse" x1="-295.9486" y1="600.194" x2="-293.1565" y2="600.194" gradientTransform="matrix(0.9885 0.1514 -0.1514 0.9885 66.6552 61.6768)">
		<stop  offset="0" style="stop-color:#129D37"/>
		<stop  offset="0.5025" style="stop-color:#007F37"/>
		<stop  offset="1" style="stop-color:#006837"/>
	</linearGradient>
	<polygon id="XMLID_17_" class="st44" points="-315.2,609.7 -314.3,609.1 -314.8,610.1 -314,610.9 -315.1,610.7 -315.5,611.8 
		-315.7,610.6 -316.8,610.5 -315.8,610 -316,608.8 	"/>
	
		<linearGradient id="XMLID_151_" gradientUnits="userSpaceOnUse" x1="-298.9487" y1="598.8038" x2="-296.1565" y2="598.8038" gradientTransform="matrix(0.9885 0.1514 -0.1514 0.9885 66.6552 61.6768)">
		<stop  offset="0" style="stop-color:#129D37"/>
		<stop  offset="0.5025" style="stop-color:#007F37"/>
		<stop  offset="1" style="stop-color:#006837"/>
	</linearGradient>
	<polygon id="XMLID_18_" class="st45" points="-318,607.8 -317.1,607.3 -317.6,608.3 -316.8,609.1 -317.8,608.9 -318.3,610 
		-318.5,608.8 -319.5,608.7 -318.5,608.1 -318.8,607 	"/>
	
		<linearGradient id="XMLID_152_" gradientUnits="userSpaceOnUse" x1="-304.6006" y1="586.1868" x2="-299.231" y2="586.1868" gradientTransform="matrix(1.0544 0.1614 -0.153 0.9991 88.938 59.125)">
		<stop  offset="0" style="stop-color:#129D37"/>
		<stop  offset="0.5025" style="stop-color:#007F37"/>
		<stop  offset="1" style="stop-color:#006837"/>
	</linearGradient>
	<polygon id="XMLID_20_" class="st46" points="-318.9,594.7 -317,593.6 -318,595.6 -316.4,597.2 -318.5,596.7 -319.5,598.8 
		-319.8,596.5 -322,596.2 -320,595.3 -320.4,593 	"/>
</g>
</svg>
